# Blender 4.1.1
# www.blender.org
mtllib tanto.mtl
o SM_Wep_Tanto_01
v -0.344238 1.004724 -0.302083
v -0.198669 1.004723 -0.523564
v 0.000000 1.004723 -0.604588
v 0.198669 1.004724 -0.523564
v 0.344238 1.004724 -0.302083
v 0.397644 1.004722 0.000423
v 0.344238 1.004724 0.302928
v 0.198669 1.004724 0.524409
v 0.000000 1.004723 0.605434
v -0.198669 1.004723 0.524409
v -0.344238 1.004724 0.302928
v -0.397644 1.004724 0.000423
v -0.344238 0.890974 -0.302083
v -0.198669 0.890974 -0.523564
v 0.000000 0.890975 -0.604588
v 0.198669 0.890974 -0.523564
v 0.344238 0.890974 -0.302083
v 0.397644 0.890977 0.000423
v 0.344238 0.890974 0.302928
v 0.198669 0.890974 0.524409
v 0.000000 0.890975 0.605434
v -0.198669 0.890974 0.524409
v -0.344238 0.890974 0.302928
v -0.397644 0.890974 0.000423
v 0.000000 1.004723 0.000423
v 0.000000 0.890975 0.000423
v 0.066833 0.890974 0.294002
v 0.066833 0.236278 0.294002
v 0.066833 -0.259120 0.294002
v 0.066833 -0.822263 0.294002
v 0.066833 0.890974 -0.301778
v 0.066833 0.236278 -0.301778
v 0.066833 -0.259120 -0.301778
v 0.066833 -0.822263 -0.301778
v 0.099182 0.483968 0.185664
v 0.163269 0.326342 -0.003850
v 0.099182 0.483971 -0.193440
v 0.163269 0.641608 -0.003850
v 0.099182 -0.011423 0.185664
v 0.163269 -0.169054 -0.003850
v 0.099182 -0.011423 -0.193440
v 0.163269 0.146212 -0.003850
v 0.099182 -0.506825 0.185664
v 0.163269 -0.664454 -0.003850
v 0.099182 -0.506825 -0.193440
v 0.163269 -0.349186 -0.003850
v 0.163269 0.890974 0.000423
v 0.163269 0.236279 -0.003850
v 0.163269 -0.259119 -0.003850
v 0.163269 -0.822263 -0.003850
v 0.163269 -0.822263 -0.004155
v -0.026245 0.890975 0.344051
v -0.026245 0.236278 0.344051
v -0.026245 -0.259120 0.344051
v -0.026245 -0.822264 0.344051
v -0.026245 0.890975 -0.351826
v -0.026245 0.236278 -0.351826
v -0.026245 -0.259120 -0.351826
v -0.026245 -0.822264 -0.351826
v 0.098877 -0.848631 0.320705
v 0.205994 -0.848630 -0.004231
v 0.098877 -1.029319 0.320705
v 0.205994 -1.029320 -0.004231
v 0.098877 -0.848631 -0.328480
v 0.098877 -1.029319 -0.328480
v -0.026245 -0.848628 0.395397
v -0.026245 -1.029319 0.395397
v -0.026245 -0.848628 -0.403172
v -0.026245 -1.029319 -0.403172
v -0.119019 0.890975 0.294002
v -0.119019 0.236278 0.294002
v -0.119019 -0.259120 0.294002
v -0.119019 -0.822263 0.294002
v -0.119019 0.890975 -0.301778
v -0.119019 0.236278 -0.301778
v -0.119019 -0.259120 -0.301778
v -0.119019 -0.822263 -0.301778
v -0.151672 0.483968 0.185664
v -0.215454 0.326342 -0.003850
v -0.151672 0.483971 -0.193440
v -0.215454 0.641606 -0.003850
v -0.151672 -0.011423 0.185664
v -0.215454 -0.169054 -0.003850
v -0.151672 -0.011423 -0.193440
v -0.215454 0.146212 -0.003850
v -0.151672 -0.506825 0.185664
v -0.215454 -0.664454 -0.003850
v -0.151672 -0.506825 -0.193440
v -0.215454 -0.349186 -0.003850
v -0.215454 0.890974 0.000423
v -0.215454 0.236278 -0.003850
v -0.215454 -0.259120 -0.003850
v -0.215454 -0.822263 -0.003850
v -0.215454 -0.822263 -0.004155
v -0.151062 -0.848631 0.320705
v -0.258179 -0.848631 -0.004231
v -0.151062 -1.029319 0.320705
v -0.258179 -1.029319 -0.004231
v -0.151062 -0.848631 -0.328480
v -0.151062 -1.029319 -0.328480
v -0.026245 -1.192176 0.242580
v -0.026245 -1.261430 -0.003926
v 0.050964 -1.192177 0.196498
v 0.117188 -1.192177 -0.004078
v 0.050964 -1.192177 -0.204274
v -0.026245 -1.192176 -0.250355
v -0.103149 -1.192176 0.196498
v -0.169373 -1.192177 -0.004078
v -0.103149 -1.192176 -0.204274
v -0.043640 1.221740 -0.264851
v -0.043640 5.038329 -0.278813
v -0.009766 1.216503 0.243190
v -0.009766 5.108733 0.224421
v -0.009766 5.723989 -0.173070
v -0.043640 5.787735 -0.278432
v -0.043640 5.083727 0.045665
v -0.043640 1.218358 0.062755
v 0.047913 1.221740 -0.264851
v 0.047913 1.218358 0.062755
v 0.047913 5.038329 -0.278813
v 0.047913 5.083727 0.045665
v 0.047913 5.787734 -0.278432
v 0.013733 5.723989 -0.173070
v 0.013733 5.108733 0.224421
v 0.013733 1.216503 0.243190
v -0.104370 1.219796 -0.389211
v -0.104370 1.218123 0.085948
v 0.109253 1.219795 -0.389211
v 0.109253 1.218123 0.085948
v -0.104370 1.216792 0.365489
v 0.109253 1.216792 0.365489
v -0.104370 1.003509 -0.388982
v -0.104370 1.001827 0.086101
v 0.109253 1.003508 -0.388982
v 0.109253 1.001827 0.086101
v -0.104370 1.000503 0.365718
v 0.109253 1.000503 0.365718
v -0.043640 1.713668 0.059169
v -0.009766 1.717437 0.239223
v 0.013733 1.717437 0.239223
v 0.047913 1.713668 0.059169
v 0.047913 1.706841 -0.267827
v -0.043640 1.706841 -0.267827
v 0.047913 2.375786 0.055659
v 0.047913 2.358868 -0.270650
v -0.043640 2.358867 -0.270650
v -0.043640 2.375786 0.055659
v -0.009766 2.385113 0.235332
v 0.013733 2.385112 0.235332
v 0.047913 3.606487 0.051463
v -0.043640 3.606487 0.051463
v -0.009766 3.622414 0.230754
v 0.013733 3.622414 0.230754
v 0.047913 3.386294 0.021327
v -0.043640 3.386293 0.021327
v -0.009766 3.452105 0.193751
v 0.013733 3.452105 0.193751
v 0.047913 3.132375 0.052455
v 0.047913 3.290920 -0.273625
v -0.043640 3.290920 -0.273625
v -0.043640 3.132375 0.052455
v -0.009766 3.146715 0.231822
v 0.013733 3.146715 0.231822
v 0.047913 1.875939 0.031932
v 0.047913 1.856841 -0.240895
v -0.043640 1.856841 -0.240895
v -0.043640 1.875939 0.031932
v -0.009766 1.931499 0.192149
v 0.013733 1.931499 0.192149
v 0.047913 4.693102 -0.278203
v 0.047913 4.760668 -0.000035
v 0.013733 4.810308 0.166438
v -0.009766 4.810308 0.166438
v -0.043640 4.760668 -0.000035
v -0.043640 4.693102 -0.278203
v 0.047913 4.538760 -0.277974
v 0.047913 4.629287 0.046657
v 0.013733 4.652779 0.225413
v -0.009766 4.652779 0.225413
v -0.043640 4.629287 0.046657
v -0.043640 4.538760 -0.277974
v 0.047913 4.327416 0.048716
v 0.047913 4.029146 0.049174
v 0.047913 4.164815 -0.046727
v 0.047913 4.263820 -0.276219
v -0.043640 4.315590 0.048716
v -0.043640 4.027172 0.049174
v -0.043640 4.178481 -0.035207
v -0.043640 4.202337 -0.276143
v -0.043640 5.498473 -0.056340
v -0.009766 5.480858 0.087092
v 0.013733 5.480858 0.087092
v 0.047913 5.498473 -0.056340
vn -0.8357 -0.0000 -0.5492
vn -0.3776 -0.0000 -0.9260
vn 0.3776 -0.0000 -0.9260
vn 0.8357 -0.0000 -0.5492
vn 0.9848 -0.0000 -0.1739
vn 0.9848 -0.0000 0.1739
vn 0.8357 -0.0000 0.5492
vn 0.3776 -0.0000 0.9260
vn -0.3776 -0.0000 0.9260
vn -0.8357 -0.0000 0.5492
vn -0.9848 -0.0000 0.1739
vn -0.9848 -0.0000 -0.1739
vn -0.0000 1.0000 -0.0000
vn -0.0000 -1.0000 -0.0000
vn 0.9475 -0.0007 -0.3197
vn 0.9473 -0.0000 -0.3202
vn 0.9493 -0.0079 -0.3143
vn 0.9475 0.0005 -0.3198
vn 0.9497 0.0098 -0.3129
vn 0.9502 0.0121 0.3113
vn 0.9532 -0.0000 0.3022
vn 0.9503 0.0112 0.3111
vn 0.9514 -0.0000 -0.3080
vn 0.9513 -0.0008 -0.3082
vn 0.9503 0.0120 -0.3112
vn 0.9493 -0.0082 -0.3141
vn 0.9527 0.0052 -0.3040
vn 0.9513 -0.0007 -0.3082
vn 0.9503 -0.0120 -0.3112
vn 0.9504 -0.0111 -0.3110
vn 0.9497 0.0099 0.3129
vn 0.9512 0.0011 0.3085
vn 0.9477 -0.0001 0.3191
vn 0.9498 0.0100 -0.3127
vn 0.9503 -0.0111 -0.3110
vn 0.9500 -0.0053 0.3121
vn 0.9475 -0.0007 0.3198
vn 0.9493 -0.0082 0.3142
vn 0.9493 -0.0079 0.3144
vn 0.9514 -0.0000 0.3080
vn 0.9503 -0.0112 0.3111
vn 0.9502 -0.0121 0.3113
vn 0.9473 -0.0000 0.3203
vn 0.9582 -0.0000 -0.2861
vn 0.9582 -0.0000 0.2861
vn 0.4736 -0.0000 0.8807
vn 0.4736 -0.0000 -0.8807
vn 0.9497 -0.0000 0.3131
vn 0.9495 -0.0000 -0.3137
vn 0.5126 -0.0000 0.8586
vn 0.5126 -0.0000 -0.8586
vn 0.1594 -0.9504 0.2670
vn 0.3935 -0.9193 0.0001
vn 0.2732 -0.9368 0.2184
vn 0.5340 0.8455 -0.0000
vn 0.4589 0.8499 0.2588
vn 0.4577 0.8501 0.2604
vn 0.5340 0.8455 0.0001
vn 0.4348 -0.9005 -0.0002
vn 0.4586 0.8500 -0.2591
vn 0.4573 0.8502 -0.2606
vn 0.2732 -0.9368 -0.2186
vn 0.4589 0.8499 0.2589
vn 0.2646 0.8460 0.4629
vn 0.4576 0.8502 0.2604
vn 0.2646 0.8460 -0.4629
vn 0.1594 -0.9504 -0.2671
vn -0.9480 -0.0006 -0.3184
vn -0.9495 -0.0070 -0.3136
vn -0.9478 -0.0000 -0.3189
vn -0.9481 -0.0066 -0.3178
vn -0.9491 -0.0053 -0.3149
vn -0.9496 -0.0066 0.3135
vn -0.9478 0.0001 0.3189
vn -0.9504 0.0107 0.3109
vn -0.9514 -0.0000 -0.3080
vn -0.9505 0.0099 -0.3107
vn -0.9530 -0.0000 -0.3028
vn -0.9504 0.0107 -0.3109
vn -0.9496 -0.0072 -0.3134
vn -0.9527 0.0052 -0.3040
vn -0.9495 -0.0000 0.3136
vn -0.9531 -0.0000 -0.3028
vn -0.9500 0.0078 0.3123
vn -0.9479 0.0005 0.3186
vn -0.9499 0.0089 0.3123
vn -0.9507 0.0045 -0.3101
vn -0.9513 0.0010 -0.3084
vn -0.9500 0.0089 -0.3122
vn -0.9500 -0.0053 0.3121
vn -0.9487 -0.0006 0.3163
vn -0.9498 -0.0063 0.3128
vn -0.9513 -0.0006 0.3082
vn -0.9514 -0.0000 0.3080
vn -0.9481 -0.0066 0.3179
vn -0.9513 -0.0007 0.3082
vn -0.9575 -0.0000 -0.2886
vn -0.9575 -0.0000 0.2886
vn -0.4748 -0.0000 0.8801
vn -0.4748 -0.0000 -0.8801
vn -0.9497 -0.0000 0.3131
vn -0.9495 -0.0000 -0.3137
vn -0.5135 -0.0000 0.8581
vn -0.5135 -0.0000 -0.8581
vn -0.3945 -0.9189 0.0001
vn -0.2739 -0.9366 0.2185
vn -0.4355 -0.9002 -0.0002
vn -0.2738 -0.9366 -0.2187
vn -0.1600 -0.9503 -0.2671
vn -0.5340 0.8455 -0.0000
vn -0.5340 0.8455 -0.0003
vn -0.4579 0.8501 0.2602
vn -0.4592 0.8499 0.2586
vn -0.4589 0.8499 -0.2588
vn -0.4576 0.8502 -0.2604
vn -0.2652 0.8459 0.4626
vn -0.1600 -0.9503 0.2670
vn -0.2652 0.8459 -0.4626
vn -0.4589 0.8500 -0.2589
vn 0.3991 -0.6274 0.6686
vn 0.8433 -0.4599 0.2782
vn 0.8430 -0.4602 -0.2786
vn 0.3991 -0.6274 -0.6686
vn -0.8433 -0.4599 0.2782
vn -0.8430 -0.4602 -0.2786
vn -0.4001 -0.6272 -0.6682
vn -0.4001 -0.6272 0.6682
vn 1.0000 -0.0000 -0.0000
vn 0.9473 0.1733 0.2695
vn 0.8848 0.3129 0.3454
vn 0.9704 0.0922 0.2231
vn 0.9823 0.0009 0.1875
vn -1.0000 -0.0000 -0.0000
vn -0.9481 0.1719 0.2673
vn -0.9709 0.0914 0.2212
vn -0.8865 0.3107 0.3430
vn -0.9826 0.0009 0.1859
vn 0.0004 -0.0033 -1.0000
vn 0.0008 -0.0035 -1.0000
vn 0.0004 -0.0025 -1.0000
vn -0.0000 -1.0000 -0.0041
vn -0.0000 -1.0000 -0.0035
vn -0.0000 -0.0006 -1.0000
vn -0.0000 0.0005 -1.0000
vn -0.0000 0.8556 0.5176
vn -0.0000 0.7306 0.6828
vn -0.0000 0.5426 0.8400
vn -0.0000 0.5427 0.8399
vn -0.0000 0.0052 1.0000
vn -0.0000 -1.0000 -0.0047
vn -0.0232 0.9997 0.0063
vn -0.0000 0.9999 -0.0156
vn 0.0230 0.9997 0.0063
vn 0.0032 1.0000 0.0021
vn 0.0064 1.0000 0.0065
vn 0.0059 1.0000 0.0058
vn -0.0063 1.0000 0.0065
vn -0.0032 1.0000 0.0021
vn -0.0059 1.0000 0.0058
vn -0.0000 -0.0011 -1.0000
vn -0.0000 0.0011 1.0000
vn -0.9828 0.0014 0.1847
vn -0.0000 0.0079 1.0000
vn 0.9825 0.0014 0.1863
vn -0.0000 -0.0061 -1.0000
vn -0.0000 -0.0592 -0.9982
vn -0.9801 -0.0139 0.1980
vn -0.0000 -0.0948 0.9955
vn 0.9798 -0.0140 0.1997
vn -0.9799 -0.0338 0.1966
vn -0.0000 -0.2123 0.9772
vn 0.9795 -0.0341 0.1983
vn -0.9827 0.0228 0.1841
vn -0.0000 0.1237 0.9923
vn 0.9823 0.0230 0.1857
vn -0.0000 -0.0032 -1.0000
vn -0.9827 0.0008 0.1854
vn -0.0000 0.0046 1.0000
vn 0.9824 0.0008 0.1870
vn -0.0000 0.1767 -0.9843
vn -0.9813 0.0373 0.1889
vn -0.0000 0.2148 0.9767
vn 0.9810 0.0376 0.1905
vn 0.9790 -0.0336 0.2011
vn -0.0000 -0.1907 0.9816
vn -0.9794 -0.0333 0.1994
vn -0.0000 -0.0016 -1.0000
vn 0.9814 0.0660 0.1804
vn -0.0000 0.3506 0.9365
vn -0.9817 0.0654 0.1788
vn -0.9770 0.0621 0.2040
vn -0.0000 0.3462 0.9382
vn 0.9766 0.0626 0.2058
vt 0.763794 0.126422
vt 0.379083 0.467918
vt 0.384003 0.473663
vt 0.573588 0.424421
vt 0.493164 0.478587
vt 0.493164 0.478587
vt 0.573588 0.424421
vt 0.493164 0.478587
vt 0.515137 0.471441
vt 0.515137 0.471441
s 1
usemtl lambert359.001
f 1/1/1 2/1/1 14/1/1 13/1/1
f 2/1/2 3/1/2 15/1/2 14/1/2
f 3/1/3 4/1/3 16/1/3 15/1/3
f 4/1/4 5/1/4 17/1/4 16/1/4
f 5/1/5 6/1/5 18/1/5 17/1/5
f 6/1/6 7/1/6 19/1/6 18/1/6
f 7/1/7 8/1/7 20/1/7 19/1/7
f 8/1/8 9/1/8 21/1/8 20/1/8
f 9/1/9 10/1/9 22/1/9 21/1/9
f 10/1/10 11/1/10 23/1/10 22/1/10
f 11/1/11 12/1/11 24/1/11 23/1/11
f 12/1/12 1/1/12 13/1/12 24/1/12
f 2/1/13 1/1/13 25/1/13
f 3/1/13 2/1/13 25/1/13
f 4/1/13 3/1/13 25/1/13
f 5/1/13 4/1/13 25/1/13
f 6/1/13 5/1/13 25/1/13
f 7/1/13 6/1/13 25/1/13
f 8/1/13 7/1/13 25/1/13
f 9/1/13 8/1/13 25/1/13
f 10/1/13 9/1/13 25/1/13
f 11/1/13 10/1/13 25/1/13
f 12/1/13 11/1/13 25/1/13
f 1/1/13 12/1/13 25/1/13
f 13/1/14 14/1/14 26/1/14
f 14/1/14 15/1/14 26/1/14
f 15/1/14 16/1/14 26/1/14
f 16/1/14 17/1/14 26/1/14
f 17/1/14 18/1/14 26/1/14
f 18/1/14 19/1/14 26/1/14
f 19/1/14 20/1/14 26/1/14
f 20/1/14 21/1/14 26/1/14
f 21/1/14 22/1/14 26/1/14
f 22/1/14 23/1/14 26/1/14
f 23/1/14 24/1/14 26/1/14
f 24/1/14 13/1/14 26/1/14
f 38/1/15 36/1/16 37/1/17
f 42/1/16 40/1/16 41/1/16
f 46/1/16 44/1/18 45/1/19
f 35/2/20 28/2/21 36/2/22
f 48/2/23 32/2/24 36/2/23
f 36/2/25 32/2/25 37/2/25
f 37/2/17 31/2/26 38/2/15
f 31/2/27 47/2/27 38/2/27
f 39/2/20 29/2/21 40/2/22
f 49/2/23 33/2/28 40/2/23
f 40/2/25 33/2/25 41/2/25
f 41/2/29 32/2/24 42/2/30
f 32/2/24 48/2/23 42/2/30
f 43/2/31 30/2/32 44/2/33
f 50/2/23 34/2/23 44/2/23
f 44/2/18 34/2/34 45/2/19
f 45/2/29 33/2/28 46/2/35
f 33/2/28 49/2/23 46/2/35
f 47/2/36 27/2/36 38/2/36
f 38/2/37 27/2/38 35/2/39
f 28/2/21 48/2/40 36/2/22
f 48/2/40 28/2/21 42/2/41
f 42/2/41 28/2/21 39/2/42
f 29/2/21 49/2/40 40/2/22
f 49/2/40 29/2/21 46/2/41
f 46/2/41 29/2/21 43/2/42
f 30/2/32 50/2/40 44/2/33
f 35/1/39 36/1/43 38/1/37
f 39/1/43 40/1/43 42/1/43
f 43/1/31 44/1/33 46/1/43
f 34/2/44 33/2/44 45/2/44
f 33/2/44 32/2/44 41/2/44
f 32/2/44 31/2/44 37/2/44
f 27/2/45 28/2/45 35/2/45
f 28/2/45 29/2/45 39/2/45
f 29/2/45 30/2/45 43/2/45
f 28/3/46 27/3/46 52/3/46 53/3/46
f 29/3/46 28/3/46 53/3/46 54/3/46
f 30/3/46 29/3/46 54/3/46 55/3/46
f 31/3/47 32/3/47 57/3/47 56/3/47
f 32/3/47 33/3/47 58/3/47 57/3/47
f 33/3/47 34/3/47 59/3/47 58/3/47
f 61/1/48 60/1/48 62/1/48 63/1/48
f 64/1/49 61/1/49 63/1/49 65/1/49
f 60/1/50 66/1/50 67/1/50 62/1/50
f 68/1/51 64/1/51 65/1/51 69/1/51
f 101/1/52 102/1/53 103/1/54
f 51/1/55 30/1/56 60/1/57 61/1/58
f 102/1/53 104/1/59 103/1/54
f 34/1/60 51/1/55 61/1/58 64/1/61
f 102/1/53 105/1/62 104/1/59
f 30/1/63 55/1/64 66/1/64 60/1/65
f 59/1/66 34/1/60 64/1/61 68/1/66
f 102/1/53 106/1/67 105/1/62
f 81/1/68 80/1/69 79/1/70
f 85/1/71 84/1/72 83/1/70
f 89/1/71 88/1/72 87/1/70
f 78/2/73 79/2/74 71/2/75
f 91/2/76 79/2/77 75/2/78
f 79/2/77 80/2/79 75/2/78
f 80/2/69 81/2/68 74/2/80
f 74/2/81 81/2/81 90/2/81
f 82/2/82 83/2/74 72/2/75
f 92/2/76 83/2/77 76/2/83
f 83/2/77 84/2/79 76/2/83
f 84/2/72 85/2/71 75/2/78
f 75/2/78 85/2/71 91/2/76
f 86/2/84 87/2/85 73/2/86
f 93/2/76 87/2/87 77/2/88
f 87/2/87 88/2/89 77/2/88
f 88/2/72 89/2/71 76/2/83
f 76/2/83 89/2/71 92/2/76
f 90/2/90 81/2/91 70/2/92
f 81/2/91 78/2/73 70/2/92
f 71/2/93 79/2/94 91/2/94
f 91/2/94 85/2/95 71/2/93
f 85/2/95 82/2/82 71/2/93
f 72/2/96 83/2/94 92/2/94
f 92/2/94 89/2/95 72/2/96
f 89/2/95 86/2/84 72/2/96
f 73/2/94 87/2/94 93/2/94
f 78/1/73 81/1/91 79/1/74
f 82/1/82 85/1/95 83/1/74
f 86/1/84 89/1/95 87/1/85
f 77/2/97 88/2/97 76/2/97
f 76/2/97 84/2/97 75/2/97
f 75/2/97 80/2/97 74/2/97
f 70/2/98 78/2/98 71/2/98
f 71/2/98 82/2/98 72/2/98
f 72/2/98 86/2/98 73/2/98
f 71/3/99 53/3/99 52/3/99 70/3/99
f 72/3/99 54/3/99 53/3/99 71/3/99
f 73/3/99 55/3/99 54/3/99 72/3/99
f 74/3/100 56/3/100 57/3/100 75/3/100
f 75/3/100 57/3/100 58/3/100 76/3/100
f 76/3/100 58/3/100 59/3/100 77/3/100
f 96/1/101 98/1/101 97/1/101 95/1/101
f 99/1/102 100/1/102 98/1/102 96/1/102
f 95/1/103 97/1/103 67/1/103 66/1/103
f 68/1/104 69/1/104 100/1/104 99/1/104
f 102/1/105 107/1/106 108/1/107
f 102/1/105 108/1/107 109/1/108
f 106/1/109 102/1/105 109/1/108
f 94/1/110 96/1/111 95/1/112 73/1/113
f 77/1/114 99/1/115 96/1/111 94/1/110
f 73/1/113 95/1/112 66/1/116 55/1/116
f 102/1/105 101/1/117 107/1/106
f 59/1/118 68/1/118 99/1/115 77/1/119
f 62/1/120 67/1/120 101/1/120 103/1/120
f 63/1/121 62/1/121 103/1/121 104/1/121
f 65/1/122 63/1/122 104/1/122 105/1/122
f 69/1/123 65/1/123 105/1/123 106/1/123
f 97/1/124 98/1/124 108/1/124 107/1/124
f 98/1/125 100/1/125 109/1/125 108/1/125
f 100/1/126 69/1/126 106/1/126 109/1/126
f 67/1/127 97/1/127 107/1/127 101/1/127
f 184/4/128 185/4/128 176/4/128 177/4/128 182/4/128
f 120/4/128 122/4/128 193/4/128 121/4/128
f 193/5/129 122/5/130 123/5/130 192/5/131
f 178/5/132 153/5/132 150/5/132 183/5/132 182/6/132 177/5/132
f 188/4/133 189/4/133 160/4/133 151/4/133 187/4/133
f 111/4/133 116/4/133 190/4/133 115/4/133
f 190/5/134 191/5/135 114/5/136 115/5/136
f 179/5/137 180/5/137 186/5/137 187/5/137 151/5/137 152/5/137
f 159/4/138 160/4/138 189/4/139 181/4/140 176/4/140 185/4/139
f 133/1/141 132/1/142 134/1/142 135/1/141
f 120/4/143 111/4/143 115/4/144 122/4/144
f 115/5/145 114/5/145 123/5/145 122/5/145
f 114/5/146 191/5/147 192/5/148 123/5/146
f 178/5/149 179/5/149 152/5/149 153/5/149
f 136/1/150 133/1/141 135/1/141 137/1/150
f 117/1/151 110/1/151 126/1/151 127/1/151
f 110/1/152 118/1/152 128/1/152 126/1/152
f 118/1/153 119/1/153 129/1/153 128/1/153
f 112/1/154 117/1/155 127/1/155 130/1/156
f 119/1/157 125/1/158 131/1/159 129/1/157
f 125/1/158 112/1/154 130/1/156 131/1/159
f 127/1/133 126/1/133 132/1/133 133/1/133
f 126/1/160 128/1/160 134/1/160 132/1/160
f 128/1/128 129/1/128 135/1/128 134/1/128
f 130/1/133 127/1/133 133/1/133 136/1/133
f 129/1/128 131/1/128 137/1/128 135/1/128
f 131/1/161 130/1/161 136/1/161 137/1/161
f 139/5/162 138/5/162 117/5/162 112/5/162
f 140/5/163 139/5/163 112/5/163 125/5/163
f 141/5/164 140/5/164 125/5/164 119/5/164
f 119/4/128 118/4/128 142/4/128 141/4/128
f 118/4/165 110/4/165 143/4/165 142/4/165
f 138/4/133 143/4/133 110/4/133 117/4/133
f 164/7/128 165/4/128 145/4/128 144/4/128
f 165/4/166 166/4/166 146/4/166 145/4/166
f 147/4/133 146/4/133 166/4/133 167/7/133
f 148/5/167 147/5/167 167/5/167 168/5/167
f 149/5/168 148/5/168 168/5/168 169/5/168
f 144/5/169 149/5/169 169/5/169 164/5/169
f 154/4/128 159/4/128 150/4/128
f 151/4/133 160/4/133 155/4/133
f 152/5/170 151/5/170 155/8/170 156/5/170
f 153/5/171 152/5/171 156/5/171 157/5/171
f 150/5/172 153/5/172 157/5/172 154/8/172
f 158/4/128 159/4/128 154/4/128
f 155/4/133 160/4/133 161/4/133
f 156/5/173 155/8/173 161/5/173 162/5/173
f 157/5/174 156/5/174 162/5/174 163/5/174
f 154/8/175 157/5/175 163/5/175 158/5/175
f 144/4/128 145/4/128 159/4/128 158/4/128
f 145/4/176 146/4/176 160/4/138 159/4/138
f 161/4/133 160/4/133 146/4/133 147/4/133
f 162/5/177 161/5/177 147/5/177 148/5/177
f 163/5/178 162/5/178 148/5/178 149/5/178
f 158/5/179 163/5/179 149/5/179 144/5/179
f 141/4/128 142/4/128 165/4/128 164/7/128
f 142/4/180 143/4/180 166/4/180 165/4/180
f 167/7/133 166/4/133 143/4/133 138/4/133
f 168/5/181 167/5/181 138/5/181 139/5/181
f 169/5/182 168/5/182 139/5/182 140/5/182
f 164/5/183 169/5/183 140/5/183 141/5/183
f 171/4/128 170/4/128 120/4/128 121/4/128
f 124/5/184 172/5/184 171/5/184 121/5/184
f 113/5/185 173/5/185 172/5/185 124/5/185
f 174/5/186 173/5/186 113/5/186 116/5/186
f 111/4/133 175/4/133 174/4/133 116/4/133
f 120/4/143 170/4/187 175/4/187 111/4/143
f 177/4/128 176/4/128 170/4/128 171/4/128
f 172/5/188 178/5/188 177/5/188 171/5/188
f 172/5/189 173/5/189 179/5/189 178/5/189
f 173/5/190 174/5/190 180/5/190 179/5/190
f 174/4/133 175/4/133 181/4/133 180/4/133
f 176/4/140 181/4/140 175/4/187 170/4/187
f 183/9/128 184/9/128 182/9/128
f 150/4/128 159/4/128 185/4/128 184/4/128 183/4/128
f 186/10/133 188/10/133 187/10/133
f 180/4/133 181/4/133 189/4/133 188/4/133 186/4/133
f 116/5/191 113/5/191 191/5/135 190/5/134
f 192/5/148 191/5/147 113/5/192 124/5/192
f 121/5/193 193/5/129 192/5/131 124/5/193
